# xmcd CD database file
#
# Track frame offsets:
#	150
#	20998
#	42776
#	67742
#	87173
#	106388
#	126740
#	146760
#	165037
#	186332
#	206672
#	223202
#	245524
#	272204
#	294019
#	316414
#
# Disc length: 4534 seconds
#
# Revision: 0
# Processed by: cddbd v1.5.2PL0 Copyright (c) Steve Scherf et al.
# Submitted via: CDex 1.70beta2
#
DISCID=f211b410
DTITLE=Thomas Hardin Trio - JAZZで聴くLove Song
DYEAR=2007
DGENRE=Jazz
TTITLE0=桜坂
TTITLE1=オリビアを聴きながら
TTITLE2=First Love
TTITLE3=本気でオンリーユー
TTITLE4=Yes-No
TTITLE5=I Love You
TTITLE6=君がいるだけで
TTITLE7=Say Yes
TTITLE8=True Love
TTITLE9=未来予想図Ⅱ
TTITLE10=守ってあげたい
TTITLE11=Piece Of My Wish
TTITLE12=Tsunami
TTITLE13=いとしのエリー
TTITLE14=毎日がスペシャル
TTITLE15=瞳をとじて
EXTD=YEAR: 2007
EXTT0=
EXTT1=
EXTT2=
EXTT3=
EXTT4=
EXTT5=
EXTT6=
EXTT7=
EXTT8=
EXTT9=
EXTT10=
EXTT11=
EXTT12=
EXTT13=
EXTT14=
EXTT15=
PLAYORDER=
